<mxfile host="app.diagrams.net" modified="2023-08-14T03:06:38.100Z" agent="Mozilla/5.0 (Windows NT 10.0; Win64; x64) AppleWebKit/537.36 (KHTML, like Gecko) Chrome/115.0.0.0 Safari/537.36" etag="SZ5jVwM28Xw--on7dRb9" version="21.6.6" type="device">
  <diagram id="R2lEEEUBdFMjLlhIrx00" name="Page-1">
    <mxGraphModel dx="2074" dy="2210" grid="1" gridSize="10" guides="1" tooltips="1" connect="1" arrows="1" fold="1" page="1" pageScale="1" pageWidth="850" pageHeight="1100" math="0" shadow="0" extFonts="Permanent Marker^https://fonts.googleapis.com/css?family=Permanent+Marker">
      <root>
        <mxCell id="0" />
        <mxCell id="1" parent="0" />
        <mxCell id="qd0w0BPaCvEx1X0R_ME5-5" value="&lt;b&gt;&lt;u&gt;Name&lt;/u&gt;&lt;/b&gt;" style="ellipse;whiteSpace=wrap;html=1;" parent="1" vertex="1">
          <mxGeometry x="170" y="430" width="90" height="50" as="geometry" />
        </mxCell>
        <mxCell id="qd0w0BPaCvEx1X0R_ME5-11" value="&lt;b&gt;TEAM&lt;/b&gt;" style="rounded=0;whiteSpace=wrap;html=1;" parent="1" vertex="1">
          <mxGeometry x="320" y="360" width="120" height="60" as="geometry" />
        </mxCell>
        <mxCell id="qd0w0BPaCvEx1X0R_ME5-12" value="&lt;b&gt;&lt;u&gt;Emblem&lt;/u&gt;&lt;/b&gt;" style="ellipse;whiteSpace=wrap;html=1;" parent="1" vertex="1">
          <mxGeometry x="170" y="365" width="90" height="50" as="geometry" />
        </mxCell>
        <mxCell id="qd0w0BPaCvEx1X0R_ME5-13" value="&lt;b&gt;&lt;span&gt;Num-Of-Players&lt;/span&gt;&lt;/b&gt;" style="ellipse;whiteSpace=wrap;html=1;fontStyle=0" parent="1" vertex="1">
          <mxGeometry x="170" y="300" width="90" height="50" as="geometry" />
        </mxCell>
        <mxCell id="qd0w0BPaCvEx1X0R_ME5-21" value="&lt;b&gt;First_name&lt;/b&gt;" style="ellipse;whiteSpace=wrap;html=1;" parent="1" vertex="1">
          <mxGeometry x="50" y="585" width="90" height="50" as="geometry" />
        </mxCell>
        <mxCell id="qd0w0BPaCvEx1X0R_ME5-22" value="&lt;b&gt;Mid_Name&lt;/b&gt;" style="ellipse;whiteSpace=wrap;html=1;" parent="1" vertex="1">
          <mxGeometry x="50" y="655" width="90" height="50" as="geometry" />
        </mxCell>
        <mxCell id="qd0w0BPaCvEx1X0R_ME5-23" value="&lt;b&gt;Last_Name&lt;/b&gt;" style="ellipse;whiteSpace=wrap;html=1;" parent="1" vertex="1">
          <mxGeometry x="50" y="725" width="90" height="50" as="geometry" />
        </mxCell>
        <mxCell id="qd0w0BPaCvEx1X0R_ME5-28" value="&lt;b&gt;PLAYER&lt;/b&gt;" style="rounded=0;whiteSpace=wrap;html=1;" parent="1" vertex="1">
          <mxGeometry x="320" y="650" width="120" height="60" as="geometry" />
        </mxCell>
        <mxCell id="qd0w0BPaCvEx1X0R_ME5-29" value="&lt;b&gt;&lt;u&gt;ID_NUM&lt;/u&gt;&lt;/b&gt;" style="ellipse;whiteSpace=wrap;html=1;" parent="1" vertex="1">
          <mxGeometry x="500" y="770" width="90" height="50" as="geometry" />
        </mxCell>
        <mxCell id="qd0w0BPaCvEx1X0R_ME5-30" value="&lt;b&gt;Name&lt;/b&gt;" style="ellipse;whiteSpace=wrap;html=1;" parent="1" vertex="1">
          <mxGeometry x="170" y="655" width="90" height="50" as="geometry" />
        </mxCell>
        <mxCell id="qd0w0BPaCvEx1X0R_ME5-31" value="" style="endArrow=none;html=1;rounded=0;entryX=1;entryY=0.5;entryDx=0;entryDy=0;exitX=0;exitY=0;exitDx=0;exitDy=0;" parent="1" source="qd0w0BPaCvEx1X0R_ME5-30" target="qd0w0BPaCvEx1X0R_ME5-21" edge="1">
          <mxGeometry width="50" height="50" relative="1" as="geometry">
            <mxPoint x="360" y="755" as="sourcePoint" />
            <mxPoint x="410" y="705" as="targetPoint" />
          </mxGeometry>
        </mxCell>
        <mxCell id="qd0w0BPaCvEx1X0R_ME5-32" value="" style="endArrow=none;html=1;rounded=0;entryX=1;entryY=0.5;entryDx=0;entryDy=0;exitX=0;exitY=0.5;exitDx=0;exitDy=0;" parent="1" source="qd0w0BPaCvEx1X0R_ME5-30" target="qd0w0BPaCvEx1X0R_ME5-22" edge="1">
          <mxGeometry width="50" height="50" relative="1" as="geometry">
            <mxPoint x="360" y="755" as="sourcePoint" />
            <mxPoint x="410" y="705" as="targetPoint" />
          </mxGeometry>
        </mxCell>
        <mxCell id="qd0w0BPaCvEx1X0R_ME5-33" value="" style="endArrow=none;html=1;rounded=0;exitX=1;exitY=0.5;exitDx=0;exitDy=0;entryX=0;entryY=1;entryDx=0;entryDy=0;" parent="1" source="qd0w0BPaCvEx1X0R_ME5-23" target="qd0w0BPaCvEx1X0R_ME5-30" edge="1">
          <mxGeometry width="50" height="50" relative="1" as="geometry">
            <mxPoint x="360" y="755" as="sourcePoint" />
            <mxPoint x="410" y="705" as="targetPoint" />
          </mxGeometry>
        </mxCell>
        <mxCell id="qd0w0BPaCvEx1X0R_ME5-34" value="PLAYS_FOR" style="rhombus;whiteSpace=wrap;html=1;" parent="1" vertex="1">
          <mxGeometry x="320" y="486" width="120" height="80" as="geometry" />
        </mxCell>
        <mxCell id="qd0w0BPaCvEx1X0R_ME5-38" value="" style="endArrow=none;html=1;rounded=0;entryX=0;entryY=0.5;entryDx=0;entryDy=0;exitX=0.75;exitY=1;exitDx=0;exitDy=0;" parent="1" source="qd0w0BPaCvEx1X0R_ME5-28" target="qd0w0BPaCvEx1X0R_ME5-29" edge="1">
          <mxGeometry width="50" height="50" relative="1" as="geometry">
            <mxPoint x="400" y="690" as="sourcePoint" />
            <mxPoint x="450" y="640" as="targetPoint" />
          </mxGeometry>
        </mxCell>
        <mxCell id="qd0w0BPaCvEx1X0R_ME5-39" value="" style="endArrow=none;html=1;rounded=0;exitX=1;exitY=0.5;exitDx=0;exitDy=0;entryX=0;entryY=0.5;entryDx=0;entryDy=0;" parent="1" source="qd0w0BPaCvEx1X0R_ME5-30" target="qd0w0BPaCvEx1X0R_ME5-28" edge="1">
          <mxGeometry width="50" height="50" relative="1" as="geometry">
            <mxPoint x="400" y="690" as="sourcePoint" />
            <mxPoint x="450" y="640" as="targetPoint" />
          </mxGeometry>
        </mxCell>
        <mxCell id="qd0w0BPaCvEx1X0R_ME5-41" value="&lt;b&gt;&lt;span&gt;D.O.B&lt;/span&gt;&lt;/b&gt;" style="ellipse;whiteSpace=wrap;html=1;fontStyle=0" parent="1" vertex="1">
          <mxGeometry x="370" y="790" width="90" height="50" as="geometry" />
        </mxCell>
        <mxCell id="qd0w0BPaCvEx1X0R_ME5-42" value="" style="endArrow=none;html=1;rounded=0;entryX=0.5;entryY=1;entryDx=0;entryDy=0;exitX=0;exitY=0;exitDx=0;exitDy=0;" parent="1" source="qd0w0BPaCvEx1X0R_ME5-41" target="qd0w0BPaCvEx1X0R_ME5-28" edge="1">
          <mxGeometry width="50" height="50" relative="1" as="geometry">
            <mxPoint x="400" y="690" as="sourcePoint" />
            <mxPoint x="450" y="640" as="targetPoint" />
          </mxGeometry>
        </mxCell>
        <mxCell id="qd0w0BPaCvEx1X0R_ME5-43" value="&lt;span&gt;&lt;span&gt;Gender&lt;/span&gt;&lt;/span&gt;" style="ellipse;whiteSpace=wrap;html=1;fontStyle=1" parent="1" vertex="1">
          <mxGeometry x="260" y="820" width="90" height="50" as="geometry" />
        </mxCell>
        <mxCell id="qd0w0BPaCvEx1X0R_ME5-44" value="" style="endArrow=none;html=1;rounded=0;entryX=0.25;entryY=1;entryDx=0;entryDy=0;exitX=0.5;exitY=0;exitDx=0;exitDy=0;" parent="1" source="qd0w0BPaCvEx1X0R_ME5-43" target="qd0w0BPaCvEx1X0R_ME5-28" edge="1">
          <mxGeometry width="50" height="50" relative="1" as="geometry">
            <mxPoint x="400" y="690" as="sourcePoint" />
            <mxPoint x="450" y="640" as="targetPoint" />
          </mxGeometry>
        </mxCell>
        <mxCell id="qd0w0BPaCvEx1X0R_ME5-48" value="" style="shape=link;html=1;rounded=0;entryX=0.5;entryY=0;entryDx=0;entryDy=0;exitX=0.5;exitY=1;exitDx=0;exitDy=0;" parent="1" source="qd0w0BPaCvEx1X0R_ME5-34" target="qd0w0BPaCvEx1X0R_ME5-28" edge="1">
          <mxGeometry width="100" relative="1" as="geometry">
            <mxPoint x="370" y="560" as="sourcePoint" />
            <mxPoint x="470" y="560" as="targetPoint" />
          </mxGeometry>
        </mxCell>
        <mxCell id="qd0w0BPaCvEx1X0R_ME5-49" value="N" style="edgeLabel;html=1;align=center;verticalAlign=middle;resizable=0;points=[];" parent="qd0w0BPaCvEx1X0R_ME5-48" vertex="1" connectable="0">
          <mxGeometry x="-0.3095" y="1" relative="1" as="geometry">
            <mxPoint x="10" as="offset" />
          </mxGeometry>
        </mxCell>
        <mxCell id="qd0w0BPaCvEx1X0R_ME5-50" value="" style="endArrow=none;html=1;rounded=0;entryX=0;entryY=0.5;entryDx=0;entryDy=0;exitX=1;exitY=0.5;exitDx=0;exitDy=0;" parent="1" source="qd0w0BPaCvEx1X0R_ME5-12" target="qd0w0BPaCvEx1X0R_ME5-11" edge="1">
          <mxGeometry width="50" height="50" relative="1" as="geometry">
            <mxPoint x="370" y="590" as="sourcePoint" />
            <mxPoint x="420" y="540" as="targetPoint" />
            <Array as="points">
              <mxPoint x="280" y="390" />
            </Array>
          </mxGeometry>
        </mxCell>
        <mxCell id="qd0w0BPaCvEx1X0R_ME5-51" value="" style="endArrow=none;html=1;rounded=0;entryX=0;entryY=1;entryDx=0;entryDy=0;exitX=1;exitY=0.5;exitDx=0;exitDy=0;" parent="1" source="qd0w0BPaCvEx1X0R_ME5-5" target="qd0w0BPaCvEx1X0R_ME5-11" edge="1">
          <mxGeometry width="50" height="50" relative="1" as="geometry">
            <mxPoint x="370" y="590" as="sourcePoint" />
            <mxPoint x="420" y="540" as="targetPoint" />
          </mxGeometry>
        </mxCell>
        <mxCell id="qd0w0BPaCvEx1X0R_ME5-52" value="" style="endArrow=none;html=1;rounded=0;entryX=0;entryY=0;entryDx=0;entryDy=0;exitX=1;exitY=0.5;exitDx=0;exitDy=0;" parent="1" source="qd0w0BPaCvEx1X0R_ME5-13" target="qd0w0BPaCvEx1X0R_ME5-11" edge="1">
          <mxGeometry width="50" height="50" relative="1" as="geometry">
            <mxPoint x="370" y="590" as="sourcePoint" />
            <mxPoint x="420" y="540" as="targetPoint" />
          </mxGeometry>
        </mxCell>
        <mxCell id="qd0w0BPaCvEx1X0R_ME5-54" value="&lt;b&gt;First_name&lt;/b&gt;" style="ellipse;whiteSpace=wrap;html=1;" parent="1" vertex="1">
          <mxGeometry x="50" y="-37" width="90" height="50" as="geometry" />
        </mxCell>
        <mxCell id="qd0w0BPaCvEx1X0R_ME5-55" value="&lt;b&gt;Mid_Name&lt;/b&gt;" style="ellipse;whiteSpace=wrap;html=1;" parent="1" vertex="1">
          <mxGeometry x="50" y="33" width="90" height="50" as="geometry" />
        </mxCell>
        <mxCell id="qd0w0BPaCvEx1X0R_ME5-56" value="&lt;b&gt;Last_Name&lt;/b&gt;" style="ellipse;whiteSpace=wrap;html=1;" parent="1" vertex="1">
          <mxGeometry x="50" y="103" width="90" height="50" as="geometry" />
        </mxCell>
        <mxCell id="qd0w0BPaCvEx1X0R_ME5-58" value="" style="endArrow=none;html=1;rounded=0;entryX=1;entryY=0.5;entryDx=0;entryDy=0;exitX=0;exitY=0;exitDx=0;exitDy=0;" parent="1" source="1oZP2CIodteJlC8XO6Dm-11" target="qd0w0BPaCvEx1X0R_ME5-54" edge="1">
          <mxGeometry width="50" height="50" relative="1" as="geometry">
            <mxPoint x="184.3095620030881" y="37.94097224160578" as="sourcePoint" />
            <mxPoint x="410" y="83" as="targetPoint" />
          </mxGeometry>
        </mxCell>
        <mxCell id="qd0w0BPaCvEx1X0R_ME5-59" value="" style="endArrow=none;html=1;rounded=0;entryX=1;entryY=0.5;entryDx=0;entryDy=0;exitX=0;exitY=0.5;exitDx=0;exitDy=0;" parent="1" target="qd0w0BPaCvEx1X0R_ME5-55" edge="1">
          <mxGeometry width="50" height="50" relative="1" as="geometry">
            <mxPoint x="170" y="56.5" as="sourcePoint" />
            <mxPoint x="410" y="83" as="targetPoint" />
          </mxGeometry>
        </mxCell>
        <mxCell id="qd0w0BPaCvEx1X0R_ME5-60" value="" style="endArrow=none;html=1;rounded=0;exitX=1;exitY=0.5;exitDx=0;exitDy=0;entryX=0;entryY=1;entryDx=0;entryDy=0;" parent="1" source="qd0w0BPaCvEx1X0R_ME5-56" edge="1">
          <mxGeometry width="50" height="50" relative="1" as="geometry">
            <mxPoint x="360" y="133" as="sourcePoint" />
            <mxPoint x="184.3095620030881" y="75.05902775839422" as="targetPoint" />
          </mxGeometry>
        </mxCell>
        <mxCell id="qd0w0BPaCvEx1X0R_ME5-61" value="" style="endArrow=none;html=1;rounded=0;entryX=1;entryY=0.5;entryDx=0;entryDy=0;exitX=0;exitY=0.5;exitDx=0;exitDy=0;" parent="1" edge="1">
          <mxGeometry width="50" height="50" relative="1" as="geometry">
            <mxPoint x="320" y="58" as="sourcePoint" />
            <mxPoint x="270" y="56.5" as="targetPoint" />
          </mxGeometry>
        </mxCell>
        <mxCell id="qd0w0BPaCvEx1X0R_ME5-62" value="&lt;b&gt;Position&lt;/b&gt;" style="ellipse;whiteSpace=wrap;html=1;fontStyle=0" parent="1" vertex="1">
          <mxGeometry x="210" y="740" width="90" height="50" as="geometry" />
        </mxCell>
        <mxCell id="qd0w0BPaCvEx1X0R_ME5-63" value="" style="endArrow=none;html=1;rounded=0;entryX=0;entryY=1;entryDx=0;entryDy=0;exitX=1;exitY=0;exitDx=0;exitDy=0;" parent="1" source="qd0w0BPaCvEx1X0R_ME5-62" target="qd0w0BPaCvEx1X0R_ME5-28" edge="1">
          <mxGeometry width="50" height="50" relative="1" as="geometry">
            <mxPoint x="370" y="490" as="sourcePoint" />
            <mxPoint x="420" y="440" as="targetPoint" />
          </mxGeometry>
        </mxCell>
        <mxCell id="qd0w0BPaCvEx1X0R_ME5-64" value="&lt;b&gt;MATCH&lt;/b&gt;" style="rounded=0;whiteSpace=wrap;html=1;" parent="1" vertex="1">
          <mxGeometry x="687" y="356" width="120" height="60" as="geometry" />
        </mxCell>
        <mxCell id="qd0w0BPaCvEx1X0R_ME5-68" value="&lt;b&gt;&lt;u&gt;V_NAME&lt;/u&gt;&lt;/b&gt;" style="ellipse;whiteSpace=wrap;html=1;" parent="1" vertex="1">
          <mxGeometry x="622" y="-37" width="90" height="50" as="geometry" />
        </mxCell>
        <mxCell id="qd0w0BPaCvEx1X0R_ME5-69" value="&lt;b&gt;Address&lt;/b&gt;" style="ellipse;whiteSpace=wrap;html=1;fontStyle=0" parent="1" vertex="1">
          <mxGeometry x="782" y="-37" width="90" height="50" as="geometry" />
        </mxCell>
        <mxCell id="qd0w0BPaCvEx1X0R_ME5-70" value="" style="endArrow=none;html=1;rounded=0;entryX=0.5;entryY=1;entryDx=0;entryDy=0;exitX=0;exitY=0;exitDx=0;exitDy=0;" parent="1" source="1oZP2CIodteJlC8XO6Dm-15" target="qd0w0BPaCvEx1X0R_ME5-68" edge="1">
          <mxGeometry width="50" height="50" relative="1" as="geometry">
            <mxPoint x="689" y="64" as="sourcePoint" />
            <mxPoint x="579" y="239" as="targetPoint" />
          </mxGeometry>
        </mxCell>
        <mxCell id="qd0w0BPaCvEx1X0R_ME5-71" value="" style="endArrow=none;html=1;rounded=0;entryX=0.5;entryY=1;entryDx=0;entryDy=0;exitX=1;exitY=0;exitDx=0;exitDy=0;" parent="1" source="1oZP2CIodteJlC8XO6Dm-15" target="qd0w0BPaCvEx1X0R_ME5-69" edge="1">
          <mxGeometry width="50" height="50" relative="1" as="geometry">
            <mxPoint x="809" y="64" as="sourcePoint" />
            <mxPoint x="579" y="239" as="targetPoint" />
          </mxGeometry>
        </mxCell>
        <mxCell id="qd0w0BPaCvEx1X0R_ME5-72" value="&lt;b&gt;Position&lt;/b&gt;" style="ellipse;whiteSpace=wrap;html=1;fontStyle=0" parent="1" vertex="1">
          <mxGeometry x="230" y="-72" width="90" height="50" as="geometry" />
        </mxCell>
        <mxCell id="qd0w0BPaCvEx1X0R_ME5-73" value="&lt;b&gt;Start_Date&lt;/b&gt;" style="ellipse;whiteSpace=wrap;html=1;fontStyle=0" parent="1" vertex="1">
          <mxGeometry x="335" y="-112" width="90" height="50" as="geometry" />
        </mxCell>
        <mxCell id="qd0w0BPaCvEx1X0R_ME5-75" value="" style="endArrow=none;html=1;rounded=0;entryX=1;entryY=1;entryDx=0;entryDy=0;exitX=0;exitY=0;exitDx=0;exitDy=0;" parent="1" target="qd0w0BPaCvEx1X0R_ME5-72" edge="1">
          <mxGeometry width="50" height="50" relative="1" as="geometry">
            <mxPoint x="320" y="28" as="sourcePoint" />
            <mxPoint x="490" y="318" as="targetPoint" />
          </mxGeometry>
        </mxCell>
        <mxCell id="qd0w0BPaCvEx1X0R_ME5-76" value="" style="endArrow=none;html=1;rounded=0;entryX=0.5;entryY=1;entryDx=0;entryDy=0;exitX=0.5;exitY=0;exitDx=0;exitDy=0;" parent="1" target="qd0w0BPaCvEx1X0R_ME5-73" edge="1">
          <mxGeometry width="50" height="50" relative="1" as="geometry">
            <mxPoint x="380" y="28" as="sourcePoint" />
            <mxPoint x="490" y="318" as="targetPoint" />
          </mxGeometry>
        </mxCell>
        <mxCell id="qd0w0BPaCvEx1X0R_ME5-77" value="" style="endArrow=none;html=1;rounded=0;exitX=1;exitY=0;exitDx=0;exitDy=0;entryX=0.5;entryY=1;entryDx=0;entryDy=0;" parent="1" target="1oZP2CIodteJlC8XO6Dm-21" edge="1">
          <mxGeometry width="50" height="50" relative="1" as="geometry">
            <mxPoint x="440" y="28" as="sourcePoint" />
            <mxPoint x="470" y="-30" as="targetPoint" />
          </mxGeometry>
        </mxCell>
        <mxCell id="qd0w0BPaCvEx1X0R_ME5-79" value="" style="shape=link;html=1;rounded=0;entryX=0.5;entryY=1;entryDx=0;entryDy=0;exitX=0.5;exitY=0;exitDx=0;exitDy=0;" parent="1" source="qd0w0BPaCvEx1X0R_ME5-64" target="1oZP2CIodteJlC8XO6Dm-22" edge="1">
          <mxGeometry width="100" relative="1" as="geometry">
            <mxPoint x="497" y="456" as="sourcePoint" />
            <mxPoint x="747" y="301" as="targetPoint" />
          </mxGeometry>
        </mxCell>
        <mxCell id="qd0w0BPaCvEx1X0R_ME5-81" value="&lt;b&gt;&lt;u&gt;ID_NUM&lt;/u&gt;&lt;/b&gt;" style="ellipse;whiteSpace=wrap;html=1;" parent="1" vertex="1">
          <mxGeometry x="837" y="300" width="90" height="50" as="geometry" />
        </mxCell>
        <mxCell id="qd0w0BPaCvEx1X0R_ME5-82" value="AWAY TEAM" style="rhombus;whiteSpace=wrap;html=1;" parent="1" vertex="1">
          <mxGeometry x="490" y="390" width="120" height="80" as="geometry" />
        </mxCell>
        <mxCell id="qd0w0BPaCvEx1X0R_ME5-83" value="&lt;b&gt;Start_Date&lt;/b&gt;" style="ellipse;whiteSpace=wrap;html=1;fontStyle=0" parent="1" vertex="1">
          <mxGeometry x="842" y="376" width="90" height="50" as="geometry" />
        </mxCell>
        <mxCell id="qd0w0BPaCvEx1X0R_ME5-84" value="&lt;b&gt;Start_Time&lt;/b&gt;" style="ellipse;whiteSpace=wrap;html=1;fontStyle=0" parent="1" vertex="1">
          <mxGeometry x="820" y="460" width="90" height="50" as="geometry" />
        </mxCell>
        <mxCell id="qd0w0BPaCvEx1X0R_ME5-85" value="&lt;b&gt;Score_Away&lt;/b&gt;" style="ellipse;whiteSpace=wrap;html=1;fontStyle=0" parent="1" vertex="1">
          <mxGeometry x="505" y="500" width="90" height="50" as="geometry" />
        </mxCell>
        <mxCell id="qd0w0BPaCvEx1X0R_ME5-86" value="&lt;b&gt;Score_Home&lt;/b&gt;" style="ellipse;whiteSpace=wrap;html=1;fontStyle=0" parent="1" vertex="1">
          <mxGeometry x="505" y="222" width="90" height="50" as="geometry" />
        </mxCell>
        <mxCell id="qd0w0BPaCvEx1X0R_ME5-87" value="" style="endArrow=none;html=1;rounded=0;entryX=0.5;entryY=1;entryDx=0;entryDy=0;exitX=0.5;exitY=0;exitDx=0;exitDy=0;" parent="1" source="qd0w0BPaCvEx1X0R_ME5-85" target="qd0w0BPaCvEx1X0R_ME5-82" edge="1">
          <mxGeometry width="50" height="50" relative="1" as="geometry">
            <mxPoint x="527" y="486" as="sourcePoint" />
            <mxPoint x="577" y="436" as="targetPoint" />
          </mxGeometry>
        </mxCell>
        <mxCell id="qd0w0BPaCvEx1X0R_ME5-88" value="" style="endArrow=none;html=1;rounded=0;entryX=1;entryY=1;entryDx=0;entryDy=0;exitX=0;exitY=0.5;exitDx=0;exitDy=0;" parent="1" source="qd0w0BPaCvEx1X0R_ME5-83" target="qd0w0BPaCvEx1X0R_ME5-64" edge="1">
          <mxGeometry width="50" height="50" relative="1" as="geometry">
            <mxPoint x="527" y="486" as="sourcePoint" />
            <mxPoint x="577" y="436" as="targetPoint" />
          </mxGeometry>
        </mxCell>
        <mxCell id="qd0w0BPaCvEx1X0R_ME5-89" value="" style="endArrow=none;html=1;rounded=0;entryX=0.5;entryY=0;entryDx=0;entryDy=0;exitX=0.5;exitY=1;exitDx=0;exitDy=0;" parent="1" source="qd0w0BPaCvEx1X0R_ME5-86" target="1oZP2CIodteJlC8XO6Dm-3" edge="1">
          <mxGeometry width="50" height="50" relative="1" as="geometry">
            <mxPoint x="527" y="486" as="sourcePoint" />
            <mxPoint x="577" y="436" as="targetPoint" />
          </mxGeometry>
        </mxCell>
        <mxCell id="qd0w0BPaCvEx1X0R_ME5-90" value="" style="endArrow=none;html=1;rounded=0;entryX=0.75;entryY=1;entryDx=0;entryDy=0;exitX=0;exitY=0;exitDx=0;exitDy=0;" parent="1" source="qd0w0BPaCvEx1X0R_ME5-84" target="qd0w0BPaCvEx1X0R_ME5-64" edge="1">
          <mxGeometry width="50" height="50" relative="1" as="geometry">
            <mxPoint x="527" y="486" as="sourcePoint" />
            <mxPoint x="577" y="436" as="targetPoint" />
          </mxGeometry>
        </mxCell>
        <mxCell id="1oZP2CIodteJlC8XO6Dm-2" value="" style="endArrow=none;html=1;rounded=0;entryX=1;entryY=0.5;entryDx=0;entryDy=0;exitX=0;exitY=0.5;exitDx=0;exitDy=0;" edge="1" parent="1" source="qd0w0BPaCvEx1X0R_ME5-81" target="qd0w0BPaCvEx1X0R_ME5-64">
          <mxGeometry width="50" height="50" relative="1" as="geometry">
            <mxPoint x="487" y="586" as="sourcePoint" />
            <mxPoint x="537" y="536" as="targetPoint" />
          </mxGeometry>
        </mxCell>
        <mxCell id="1oZP2CIodteJlC8XO6Dm-3" value="HOME TEAM" style="rhombus;whiteSpace=wrap;html=1;" vertex="1" parent="1">
          <mxGeometry x="490" y="301" width="120" height="80" as="geometry" />
        </mxCell>
        <mxCell id="1oZP2CIodteJlC8XO6Dm-4" value="" style="shape=link;html=1;rounded=0;entryX=0;entryY=0.25;entryDx=0;entryDy=0;exitX=1;exitY=0.5;exitDx=0;exitDy=0;" edge="1" parent="1" source="1oZP2CIodteJlC8XO6Dm-3" target="qd0w0BPaCvEx1X0R_ME5-64">
          <mxGeometry width="100" relative="1" as="geometry">
            <mxPoint x="640" y="331" as="sourcePoint" />
            <mxPoint x="640" y="415" as="targetPoint" />
          </mxGeometry>
        </mxCell>
        <mxCell id="1oZP2CIodteJlC8XO6Dm-6" value="" style="shape=link;html=1;rounded=0;entryX=0;entryY=0.75;entryDx=0;entryDy=0;exitX=1;exitY=0.5;exitDx=0;exitDy=0;" edge="1" parent="1" source="qd0w0BPaCvEx1X0R_ME5-82" target="qd0w0BPaCvEx1X0R_ME5-64">
          <mxGeometry width="100" relative="1" as="geometry">
            <mxPoint x="590" y="381" as="sourcePoint" />
            <mxPoint x="667" y="411" as="targetPoint" />
          </mxGeometry>
        </mxCell>
        <mxCell id="1oZP2CIodteJlC8XO6Dm-8" value="" style="endArrow=none;html=1;rounded=0;entryX=0;entryY=0.5;entryDx=0;entryDy=0;exitX=1;exitY=0;exitDx=0;exitDy=0;" edge="1" parent="1" source="qd0w0BPaCvEx1X0R_ME5-11" target="1oZP2CIodteJlC8XO6Dm-3">
          <mxGeometry width="50" height="50" relative="1" as="geometry">
            <mxPoint x="400" y="590" as="sourcePoint" />
            <mxPoint x="450" y="540" as="targetPoint" />
          </mxGeometry>
        </mxCell>
        <mxCell id="1oZP2CIodteJlC8XO6Dm-9" value="" style="endArrow=none;html=1;rounded=0;entryX=0;entryY=0.5;entryDx=0;entryDy=0;exitX=1;exitY=1;exitDx=0;exitDy=0;" edge="1" parent="1" source="qd0w0BPaCvEx1X0R_ME5-11" target="qd0w0BPaCvEx1X0R_ME5-82">
          <mxGeometry width="50" height="50" relative="1" as="geometry">
            <mxPoint x="400" y="590" as="sourcePoint" />
            <mxPoint x="450" y="540" as="targetPoint" />
          </mxGeometry>
        </mxCell>
        <mxCell id="1oZP2CIodteJlC8XO6Dm-10" value="COACH" style="shape=ext;margin=3;double=1;whiteSpace=wrap;html=1;align=center;" vertex="1" parent="1">
          <mxGeometry x="320" y="28" width="120" height="60" as="geometry" />
        </mxCell>
        <mxCell id="1oZP2CIodteJlC8XO6Dm-11" value="&lt;span style=&quot;border-bottom: 1px dotted&quot;&gt;Name&lt;/span&gt;" style="ellipse;whiteSpace=wrap;html=1;align=center;" vertex="1" parent="1">
          <mxGeometry x="170" y="38" width="100" height="40" as="geometry" />
        </mxCell>
        <mxCell id="1oZP2CIodteJlC8XO6Dm-12" value="COACHES" style="shape=rhombus;double=1;perimeter=rhombusPerimeter;whiteSpace=wrap;html=1;align=center;" vertex="1" parent="1">
          <mxGeometry x="320" y="170" width="120" height="60" as="geometry" />
        </mxCell>
        <mxCell id="1oZP2CIodteJlC8XO6Dm-13" value="" style="endArrow=none;html=1;rounded=0;entryX=0.5;entryY=1;entryDx=0;entryDy=0;exitX=0.5;exitY=0;exitDx=0;exitDy=0;" edge="1" parent="1" source="qd0w0BPaCvEx1X0R_ME5-11" target="1oZP2CIodteJlC8XO6Dm-12">
          <mxGeometry width="50" height="50" relative="1" as="geometry">
            <mxPoint x="410" y="290" as="sourcePoint" />
            <mxPoint x="460" y="240" as="targetPoint" />
          </mxGeometry>
        </mxCell>
        <mxCell id="1oZP2CIodteJlC8XO6Dm-14" value="" style="endArrow=none;html=1;rounded=0;entryX=0.5;entryY=1;entryDx=0;entryDy=0;exitX=0.5;exitY=0;exitDx=0;exitDy=0;" edge="1" parent="1" source="1oZP2CIodteJlC8XO6Dm-12" target="1oZP2CIodteJlC8XO6Dm-10">
          <mxGeometry width="50" height="50" relative="1" as="geometry">
            <mxPoint x="410" y="290" as="sourcePoint" />
            <mxPoint x="370" y="100" as="targetPoint" />
          </mxGeometry>
        </mxCell>
        <mxCell id="1oZP2CIodteJlC8XO6Dm-15" value="VENUE" style="rounded=0;whiteSpace=wrap;html=1;" vertex="1" parent="1">
          <mxGeometry x="689" y="43" width="120" height="60" as="geometry" />
        </mxCell>
        <mxCell id="1oZP2CIodteJlC8XO6Dm-16" value="" style="endArrow=none;html=1;rounded=0;exitX=0.5;exitY=1;exitDx=0;exitDy=0;entryX=0.5;entryY=0;entryDx=0;entryDy=0;" edge="1" parent="1" source="qd0w0BPaCvEx1X0R_ME5-11" target="qd0w0BPaCvEx1X0R_ME5-34">
          <mxGeometry width="50" height="50" relative="1" as="geometry">
            <mxPoint x="410" y="390" as="sourcePoint" />
            <mxPoint x="460" y="340" as="targetPoint" />
          </mxGeometry>
        </mxCell>
        <mxCell id="1oZP2CIodteJlC8XO6Dm-18" value="PLAYS" style="shape=rhombus;perimeter=rhombusPerimeter;whiteSpace=wrap;html=1;align=center;" vertex="1" parent="1">
          <mxGeometry x="620" y="595" width="120" height="60" as="geometry" />
        </mxCell>
        <mxCell id="1oZP2CIodteJlC8XO6Dm-19" value="" style="shape=link;html=1;rounded=0;entryX=0;entryY=0.5;entryDx=0;entryDy=0;exitX=1;exitY=0.5;exitDx=0;exitDy=0;" edge="1" parent="1" source="qd0w0BPaCvEx1X0R_ME5-28" target="1oZP2CIodteJlC8XO6Dm-18">
          <mxGeometry width="100" relative="1" as="geometry">
            <mxPoint x="380" y="370" as="sourcePoint" />
            <mxPoint x="480" y="370" as="targetPoint" />
          </mxGeometry>
        </mxCell>
        <mxCell id="1oZP2CIodteJlC8XO6Dm-20" value="" style="endArrow=none;html=1;rounded=0;entryX=0.5;entryY=1;entryDx=0;entryDy=0;exitX=1;exitY=0.5;exitDx=0;exitDy=0;" edge="1" parent="1" source="1oZP2CIodteJlC8XO6Dm-18" target="qd0w0BPaCvEx1X0R_ME5-64">
          <mxGeometry width="50" height="50" relative="1" as="geometry">
            <mxPoint x="410" y="390" as="sourcePoint" />
            <mxPoint x="460" y="340" as="targetPoint" />
          </mxGeometry>
        </mxCell>
        <mxCell id="1oZP2CIodteJlC8XO6Dm-21" value="&lt;b style=&quot;border-color: var(--border-color);&quot;&gt;Position&lt;br style=&quot;border-color: var(--border-color);&quot;&gt;History&lt;/b&gt;" style="ellipse;shape=doubleEllipse;margin=3;whiteSpace=wrap;html=1;align=center;" vertex="1" parent="1">
          <mxGeometry x="430" y="-60" width="100" height="40" as="geometry" />
        </mxCell>
        <mxCell id="1oZP2CIodteJlC8XO6Dm-22" value="PLAYED AT" style="rhombus;whiteSpace=wrap;html=1;" vertex="1" parent="1">
          <mxGeometry x="674" y="180" width="150" height="80" as="geometry" />
        </mxCell>
        <mxCell id="1oZP2CIodteJlC8XO6Dm-23" value="" style="endArrow=none;html=1;rounded=0;entryX=0.5;entryY=1;entryDx=0;entryDy=0;exitX=0.5;exitY=0;exitDx=0;exitDy=0;" edge="1" parent="1" source="1oZP2CIodteJlC8XO6Dm-22" target="1oZP2CIodteJlC8XO6Dm-15">
          <mxGeometry width="50" height="50" relative="1" as="geometry">
            <mxPoint x="410" y="390" as="sourcePoint" />
            <mxPoint x="460" y="340" as="targetPoint" />
          </mxGeometry>
        </mxCell>
      </root>
    </mxGraphModel>
  </diagram>
</mxfile>
